<svg xmlns="http://www.w3.org/2000/svg" viewBox="0 0 43 41.89"><defs><style>.cls-1,.cls-2{fill:none;stroke:#ff5039;stroke-miterlimit:10;}.cls-2{stroke-linecap:round;}</style></defs><title>webIcon_dialPadCall</title><g id="Layer_2" data-name="Layer 2"><g id="Layer_1-2" data-name="Layer 1"><path class="cls-1" d="M42.5,28.61A12.78,12.78,0,0,1,29.72,41.39h0A12.78,12.78,0,0,1,16.94,28.61V13.28A12.78,12.78,0,0,1,29.72.5h0A12.78,12.78,0,0,1,42.5,13.28Z"/><path class="cls-2" d="M13.93,33.7A14,14,0,0,1,7.68,22.1h0A14,14,0,0,1,13.8,10.43"/><path class="cls-2" d="M8.07,36.18a17,17,0,0,1-7.57-14h0A17,17,0,0,1,7.91,8"/><circle class="cls-1" cx="29.72" cy="35.23" r="2.94" transform="matrix(0.01, -1, 1, 0.01, -5.76, 64.65)"/></g></g></svg>