<svg xmlns="http://www.w3.org/2000/svg" viewBox="0 0 59 59"><defs><style>.cls-1,.cls-3{fill:none;}.cls-1{stroke:#ed1c24;stroke-miterlimit:10;}.cls-2{fill:#e9113a;}.cls-3{stroke:#e9113a;stroke-linecap:round;stroke-linejoin:round;}</style></defs><title>webIcon_dialpad_HangUpOff</title><g id="Layer_2" data-name="Layer 2"><g id="Layer_1-2" data-name="Layer 1"><circle class="cls-1" cx="29.5" cy="29.5" r="29"/><path class="cls-2" d="M48,34.87c-1.55,1.14-4.4,2.44-5.74,2-2.13-.73-.57-7.69-2.75-8.53-2.6-1-6.35-1.34-10-1.35s-7.38.34-10,1.35c-2.18.85-.62,7.81-2.75,8.53-1.34.46-4.19-.84-5.74-2a5.56,5.56,0,0,1-2.53-4.4c0-3.44,5.75-7.24,21-7.32,15.25.08,21,3.88,21,7.32A5.56,5.56,0,0,1,48,34.87Z"/><line class="cls-3" x1="29.5" y1="31.88" x2="29.5" y2="42.48"/><line class="cls-3" x1="25.26" y1="38.66" x2="29.5" y2="42.48"/><line class="cls-3" x1="29.5" y1="42.48" x2="33.74" y2="38.66"/></g></g></svg>