<svg version="1.1" id="Layer_1" xmlns="http://www.w3.org/2000/svg" xmlns:xlink="http://www.w3.org/1999/xlink" x="0px" y="0px"
  width="37.289px" height="35.85px" viewBox="0 0 37.289 35.85" enable-background="new 0 0 37.289 35.85" xml:space="preserve">
<path fill-rule="evenodd" clip-rule="evenodd" fill="#E84524" d="M26.114,0h1.35c5.404,0,9.825,4.421,9.825,9.825v16.201
 c0,5.404-4.421,9.825-9.825,9.825h-1.35c-5.404,0-9.825-4.421-9.825-9.825V9.825C16.289,4.421,20.71,0,26.114,0z"/>
<circle fill-rule="evenodd" clip-rule="evenodd" fill="#FFFFFF" cx="26.789" cy="30.913" r="1.553"/>
<path fill-rule="evenodd" clip-rule="evenodd" fill="#E84524" d="M11.626,7.515c0.406-0.339,1.01-0.286,1.35,0.121
 c0.339,0.406,0.286,1.01-0.12,1.35c-0.677,0.568-1.278,1.156-1.801,1.759c-1.88,2.164-2.832,4.57-2.835,6.989
 c-0.004,2.426,0.945,4.897,2.864,7.187c0.565,0.673,1.21,1.328,1.934,1.957c0.399,0.345,0.443,0.95,0.098,1.35
 s-0.95,0.443-1.35,0.098c-0.811-0.705-1.528-1.432-2.152-2.175c-2.216-2.643-3.311-5.538-3.307-8.416
 c0.004-2.885,1.113-5.723,3.301-8.242C10.205,8.803,10.878,8.142,11.626,7.515z"/>
<path fill-rule="evenodd" clip-rule="evenodd" fill="#E84524" d="M5.923,5.447c0.389-0.358,0.996-0.333,1.354,0.056
 S7.61,6.499,7.221,6.857C6.813,7.231,6.429,7.613,6.069,8c-2.768,2.981-4.162,6.388-4.157,9.805c0.005,3.419,1.413,6.881,4.25,9.973
 c0.38,0.414,0.785,0.821,1.213,1.219c0.387,0.36,0.409,0.966,0.048,1.354c-0.36,0.387-0.966,0.409-1.354,0.049
 c-0.467-0.434-0.907-0.875-1.318-1.323C1.58,25.618,0.006,21.705,0,17.805c-0.006-3.902,1.56-7.762,4.667-11.11
 C5.062,6.269,5.481,5.853,5.923,5.447z"/>
</svg>