<svg xmlns="http://www.w3.org/2000/svg" viewBox="0 0 30 30"><defs><style>.cls-1{fill:none;}.cls-2,.cls-3{opacity:0.1;}.cls-3{fill:#fff;}</style></defs><title>webIcon_profilePicBlank</title><g id="Layer_2" data-name="Layer 2"><g id="Layer_1-2" data-name="Layer 1"><path class="cls-1" d="M15,0h0A15,15,0,0,1,25.39,25.75v0A15,15,0,0,0,15,0Z"/><path class="cls-2" d="M14.74,18.41c7.06,0,9.67,4,10.63,7.27l0,.07a15,15,0,1,0-20.87,0v0C5.48,22.39,8,18.42,14.74,18.41ZM15,6a5.08,5.08,0,1,1-5.12,5A5.08,5.08,0,0,1,15,6Z"/><circle class="cls-3" cx="14.94" cy="11.1" r="5.08" transform="translate(3.71 25.95) rotate(-89.51)"/><path class="cls-3" d="M25.38,25.68c-1-3.31-3.57-7.29-10.63-7.27-6.73,0-9.27,4-10.22,7.29v0a15,15,0,0,0,20.88.07v0Z"/></g></g></svg>